<svg width="31" height="32" viewBox="0 0 31 32" fill="none" xmlns="http://www.w3.org/2000/svg">
<path d="M23.4515 15.1579L25.4045 13.0358C26.0865 12.2947 26.9545 11.8905 27.9 11.7895V10.1053L18.6 0H3.1C1.3795 0 0 1.49895 0 3.36842V26.9474C0 27.8407 0.326606 28.6975 0.907969 29.3292C1.48933 29.9609 2.27783 30.3158 3.1 30.3158H12.4V27.1663L12.6015 26.9474H3.1V3.36842H13.95V15.1579H23.4515ZM17.05 2.52632L25.575 11.7895H17.05V2.52632ZM25.0015 18.24L28.1635 21.6758L18.662 32H15.5V28.5642L25.0015 18.24ZM30.7675 18.8463L29.2485 20.4968L26.0865 17.0611L27.6055 15.4105C27.9 15.0737 28.4115 15.0737 28.7215 15.4105L30.7675 17.6337C31.0775 17.9705 31.0775 18.5263 30.7675 18.8463Z" fill="black"/>
</svg>
