<svg width="94" height="95" viewBox="0 0 94 95" fill="none" xmlns="http://www.w3.org/2000/svg">
<path d="M7.83333 95C7.83333 95 0 95 0 87.0833C0 79.1667 7.83333 55.4167 47 55.4167C86.1667 55.4167 94 79.1667 94 87.0833C94 95 86.1667 95 86.1667 95H7.83333ZM47 47.5C53.2326 47.5 59.2099 44.9978 63.617 40.5438C68.0241 36.0898 70.5 30.0489 70.5 23.75C70.5 17.4511 68.0241 11.4102 63.617 6.95621C59.2099 2.50223 53.2326 0 47 0C40.7674 0 34.7901 2.50223 30.383 6.95621C25.9759 11.4102 23.5 17.4511 23.5 23.75C23.5 30.0489 25.9759 36.0898 30.383 40.5438C34.7901 44.9978 40.7674 47.5 47 47.5Z" fill="black"/>
</svg>
